<svg height="512" viewBox="0 0 512 512" width="512" xmlns="http://www.w3.org/2000/svg"><g><g fill="#57a4ff"><path d="m88 320h-56v48h176v-24h-112z"/><path d="m368 344-8-24h-56v48h176v-24z"/></g><path d="m496 360h-8v-16a8 8 0 0 0 -8-8h-80v-56a8 8 0 0 0 -8-8h-128v-40h80.4a75.608 75.608 0 0 0 14.66-149.78 101.629 101.629 0 0 0 -189.29-16.97c-.73-.03-1.45-.05-2.17-.05a44.453 44.453 0 0 0 -44.4 44.4c0 .51.01 1.02.03 1.54a65.206 65.206 0 0 0 33.97 120.86h90.8v40h-128a8 8 0 0 0 -8 8v56h-10.23l-6.18-18.53a8 8 0 0 0 -7.59-5.47h-56a8 8 0 0 0 -8 8v40h-8a8 8 0 0 0 -8 8v128a8 8 0 0 0 8 8h208a8 8 0 0 0 8-8v-128a8 8 0 0 0 -8-8h-8v-16a8 8 0 0 0 -8-8h-80v-48h256v48h-10.23l-6.18-18.53a8 8 0 0 0 -7.59-5.47h-56a8 8 0 0 0 -8 8v40h-8a8 8 0 0 0 -8 8v128a8 8 0 0 0 8 8h208a8 8 0 0 0 8-8v-128a8 8 0 0 0 -8-8zm-280 16v112h-192v-112zm-16-24v8h-160v-32h42.23l6.18 18.53a8 8 0 0 0 7.59 5.47zm-42.8-136a49.2 49.2 0 0 1 -21.93-93.25 8 8 0 0 0 4.32-8.47 28.405 28.405 0 0 1 33.53-32.54 7.98 7.98 0 0 0 8.93-4.8 85.623 85.623 0 0 1 162.72 14.08 8.011 8.011 0 0 0 6.86 6.22 59.6 59.6 0 0 1 -7.23 118.76zm154.8 112h42.23l6.18 18.53a8 8 0 0 0 7.59 5.47h104v8h-160zm176 160h-192v-112h192z" fill="#004fac"/></g></svg>